<svg aria-hidden="true" style="position: absolute; width: 0; height: 0; overflow: hidden;" version="1.1" xmlns="http://www.w3.org/2000/svg" xmlns:xlink="http://www.w3.org/1999/xlink">
<defs>
<symbol id="icon-menuicon" viewBox="0 0 36 32">
<path d="M6.554 24h24.013v-2.667h-24.013v2.667zM6.554 17.333h24.013v-2.667h-24.013v2.667zM6.554 8v2.667h24.013v-2.667h-24.013z"></path>
</symbol>
<symbol id="icon-close" viewBox="0 0 32 32">
<path d="M26.667 9.081l-1.97-1.97-7.808 7.808-7.808-7.808-1.97 1.97 7.808 7.808-7.808 7.808 1.97 1.97 7.808-7.808 7.808 7.808 1.97-1.97-7.808-7.808 7.808-7.808z"></path>
</symbol>
<symbol id="icon-logo" viewBox="0 0 27 32">
<path d="M19.105 0.197c-1.484 0.171-3.584 1.48-4.627 2.88-0.602 0.802-0.955 1.568-1.261 2.72l-0.153 0.576 0.007 0.612c0.007 0.335 0.026 0.649 0.044 0.7 0.047 0.12 0.139 0.139 0.78 0.142 0.532 0.004 0.565 0 1.021-0.135 1.218-0.354 2.111-0.886 2.745-1.641 0.153-0.186 0.383-0.434 0.503-0.558 0.401-0.394 0.915-1.269 1.199-2.027 0.284-0.762 0.412-1.469 0.448-2.476l0.022-0.645-0.095-0.095c-0.106-0.106-0.164-0.109-0.634-0.055z"></path>
<path d="M18.766 7.733c-0.722 0.036-2.665 0.576-4.061 1.123-0.846 0.332-0.846 0.332-1.014 0.361-0.292 0.047-1.006-0.16-2.235-0.656-0.653-0.259-1.323-0.456-2.315-0.682-0.416-0.091-1.105-0.102-1.404-0.018-0.12 0.033-0.499 0.109-0.842 0.168-0.737 0.131-1.152 0.259-1.706 0.532-1.673 0.817-2.815 1.991-3.719 3.828-0.401 0.809-0.696 1.601-0.915 2.443-0.324 1.25-0.332 3.649-0.015 5.104 0.036 0.179 0.069 0.39 0.069 0.474 0 0.175 0.033 0.306 0.339 1.513 0.284 1.116 0.255 1.024 0.798 2.388 0.762 1.914 1.003 2.337 2.559 4.484 0.638 0.879 0.963 1.28 1.433 1.757 0.492 0.503 0.89 0.795 1.451 1.072 0.634 0.31 0.911 0.379 1.495 0.376 0.747 0 1.349-0.153 2.494-0.634 0.722-0.303 0.769-0.317 2.082-0.587 0.394-0.084 0.758-0.077 1.312 0.015 0.19 0.029 0.474 0.073 0.627 0.095 0.31 0.044 0.623 0.146 1.433 0.47 0.977 0.394 1.666 0.569 2.388 0.612 1.050 0.066 2.064-0.401 3.146-1.44 1.105-1.068 2.136-2.53 3.179-4.503 0.281-0.532 0.729-1.622 0.806-1.951 0.033-0.131 0.087-0.295 0.128-0.361 0.036-0.066 0.069-0.157 0.069-0.197 0-0.131-0.266-0.339-0.736-0.576-0.886-0.456-1.757-1.236-2.344-2.115-0.419-0.631-0.842-1.575-0.948-2.133-0.179-0.919-0.23-1.925-0.128-2.625 0.026-0.182 0.117-0.565 0.204-0.857 0.376-1.265 0.634-1.772 1.221-2.399 0.179-0.186 0.324-0.357 0.324-0.372 0-0.062 0.893-0.809 1.112-0.93 0.12-0.069 0.273-0.175 0.339-0.241 0.201-0.197 0.171-0.273-0.332-0.864-0.674-0.791-1.524-1.44-2.523-1.925-0.623-0.303-1.054-0.452-1.655-0.576-0.616-0.131-1.535-0.208-2.118-0.175z"></path>
</symbol>
<symbol id="icon-email-black" viewBox="0 0 32 32">
<path d="M26.667 5.333h-21.333c-1.467 0-2.653 1.2-2.653 2.667l-0.013 16c0 1.467 1.2 2.667 2.667 2.667h21.333c1.467 0 2.667-1.2 2.667-2.667v-16c0-1.467-1.2-2.667-2.667-2.667zM26.133 11l-9.427 5.893c-0.427 0.267-0.987 0.267-1.413 0l-9.427-5.893c-0.333-0.213-0.533-0.573-0.533-0.96 0-0.893 0.973-1.427 1.733-0.96l8.933 5.587 8.933-5.587c0.76-0.467 1.733 0.067 1.733 0.96 0 0.387-0.2 0.747-0.533 0.96z"></path>
</symbol>
<symbol id="icon-phone-black" viewBox="0 0 32 32">
<path d="M24.882 19.773l-3.268-0.373c-0.785-0.090-1.557 0.18-2.11 0.733l-2.367 2.367c-3.641-1.853-6.626-4.825-8.478-8.478l2.38-2.38c0.553-0.553 0.823-1.325 0.733-2.11l-0.373-3.242c-0.154-1.299-1.248-2.277-2.56-2.277h-2.226c-1.454 0-2.663 1.209-2.573 2.663 0.682 10.987 9.469 19.761 20.443 20.443 1.454 0.090 2.663-1.119 2.663-2.573v-2.226c0.013-1.3-0.965-2.393-2.264-2.547z"></path>
</symbol>
<symbol id="icon-person-black" viewBox="0 0 32 32">
<path d="M16 16c2.947 0 5.333-2.387 5.333-5.333s-2.387-5.333-5.333-5.333c-2.947 0-5.333 2.387-5.333 5.333s2.387 5.333 5.333 5.333zM16 18.667c-3.56 0-10.667 1.787-10.667 5.333v1.333c0 0.733 0.6 1.333 1.333 1.333h18.667c0.733 0 1.333-0.6 1.333-1.333v-1.333c0-3.547-7.107-5.333-10.667-5.333z"></path>
</symbol>
<symbol id="icon-home" viewBox="0 0 32 32">
<path d="M32 18.451l-16-12.42-16 12.42v-5.064l16-12.42 16 12.42zM28 18v12h-8v-8h-8v8h-8v-12l12-9z"></path>
</symbol>
</defs>
</svg>
